<?xml version="1.0" standalone="no"?>
<!DOCTYPE svg PUBLIC "-//W3C//DTD SVG 20010904//EN"
 "http://www.w3.org/TR/2001/REC-SVG-20010904/DTD/svg10.dtd">
<svg version="1.0" xmlns="http://www.w3.org/2000/svg"
 width="512.000000pt" height="512.000000pt" viewBox="0 0 512.000000 512.000000"
 preserveAspectRatio="xMidYMid meet">

<g transform="translate(0.000000,512.000000) scale(0.100000,-0.100000)"
fill="#000000" stroke="none">
<path d="M910 5106 c-92 -24 -172 -95 -215 -187 -22 -49 -28 -86 -45 -285
-136 -1555 -293 -2664 -465 -3292 -153 -557 33 -1035 463 -1192 108 -39 201
-57 393 -74 884 -81 1647 -95 2444 -46 520 33 792 61 911 96 299 86 479 272
561 580 23 87 26 119 27 264 0 178 -3 201 -65 430 -158 589 -320 1757 -449
3229 -24 273 -37 318 -122 397 -82 77 -118 88 -302 92 -185 5 -224 -3 -261
-53 -23 -29 -27 -48 -35 -153 -26 -339 -131 -576 -348 -783 -148 -141 -315
-233 -518 -285 -551 -139 -1112 83 -1371 544 -77 137 -128 322 -142 518 -15
195 -38 214 -266 213 -85 0 -170 -6 -195 -13z m290 -228 c1 -151 34 -390 80
-578 61 -244 150 -453 276 -643 86 -130 264 -310 387 -392 471 -311 1040 -239
1449 183 246 255 401 578 483 1012 21 110 45 336 45 423 l0 67 113 0 c204 -1
246 -41 261 -255 19 -258 86 -945 136 -1380 100 -866 205 -1498 325 -1960 71
-274 80 -432 34 -614 -64 -256 -245 -420 -518 -471 -106 -20 -565 -57 -1006
-82 -286 -16 -1127 -16 -1415 0 -423 24 -898 63 -1000 82 -213 40 -384 158
-464 321 -62 127 -79 211 -79 389 l0 155 56 215 c168 654 312 1652 432 3005
20 220 38 419 41 442 7 57 41 104 94 131 38 19 60 22 157 22 l113 0 0 -72z
m541 -990 c150 -108 335 -187 532 -230 147 -31 427 -31 574 0 256 55 470 164
671 340 71 62 71 59 4 -75 -98 -193 -274 -405 -421 -503 -304 -204 -640 -232
-945 -78 -120 60 -192 113 -297 217 -101 102 -194 232 -261 364 -67 134 -67
137 4 75 35 -30 97 -80 139 -110z"/>
<path d="M555 1261 c-56 -24 -79 -106 -79 -286 1 -300 112 -462 362 -526 41
-10 99 -19 128 -19 45 0 56 4 73 26 27 35 27 77 -1 108 -18 21 -40 29 -107 40
-100 18 -182 56 -216 100 -57 75 -84 228 -64 366 17 116 16 147 -7 170 -23 23
-62 32 -89 21z"/>
<path d="M4494 1251 c-39 -24 -48 -56 -33 -118 6 -26 11 -97 11 -158 0 -245
-76 -341 -299 -375 -52 -8 -73 -16 -90 -36 -29 -32 -29 -76 0 -110 20 -23 31
-27 73 -26 27 1 83 10 126 21 248 64 360 225 362 521 1 139 -17 240 -47 268
-33 31 -67 35 -103 13z"/>
</g>
</svg>
