<?xml version="1.0" standalone="no"?>
<!DOCTYPE svg PUBLIC "-//W3C//DTD SVG 20010904//EN"
 "http://www.w3.org/TR/2001/REC-SVG-20010904/DTD/svg10.dtd">
<svg version="1.0" xmlns="http://www.w3.org/2000/svg"
 width="512.000000pt" height="512.000000pt" viewBox="0 0 512.000000 512.000000"
 preserveAspectRatio="xMidYMid meet">

<g transform="translate(0.000000,512.000000) scale(0.100000,-0.100000)"
fill="#000000" stroke="none">
<path d="M3539 5027 c-54 -20 -95 -53 -129 -103 -17 -24 -33 -44 -37 -44 -3 0
-42 12 -88 26 -77 24 -85 24 -118 11 -44 -19 -62 -47 -76 -117 -21 -114 -23
-166 -7 -258 l16 -92 -523 -803 -523 -802 -52 -3 c-47 -3 -57 0 -87 27 -100
87 -261 173 -400 212 -64 19 -105 23 -205 23 -174 -1 -431 -19 -516 -38 -346
-75 -630 -331 -743 -671 -38 -115 -51 -213 -51 -383 0 -150 7 -174 55 -186 25
-6 25 -8 25 -106 0 -92 -2 -100 -19 -100 -11 0 -29 -12 -40 -26 -20 -25 -21
-39 -21 -251 0 -236 3 -256 48 -296 31 -28 88 -37 167 -26 143 19 263 110 328
246 l32 68 3 285 4 285 27 -75 c35 -95 72 -168 127 -251 l44 -67 0 -112 0
-112 -74 -82 c-116 -128 -107 -78 -104 -595 l3 -449 25 -27 c47 -51 70 -55
317 -55 201 0 233 3 269 19 57 26 87 72 92 140 3 49 -3 70 -42 164 -46 109
-46 109 -46 227 l0 119 68 35 c105 56 237 161 313 250 87 102 161 245 185 355
l17 81 87 0 86 0 70 -56 c365 -293 779 -453 1072 -415 48 6 97 14 108 17 20 5
23 0 33 -58 7 -39 11 -202 11 -414 0 -343 1 -350 23 -388 40 -70 63 -76 303
-76 201 0 213 1 255 23 56 30 89 85 89 149 0 36 -10 64 -42 125 l-43 78 -5
278 -5 279 -28 24 c-34 29 -67 31 -98 5 l-24 -19 -3 -291 -3 -291 52 -96 c42
-77 49 -98 38 -105 -8 -5 -92 -9 -186 -9 l-173 0 0 345 0 346 -71 427 c-39
237 -77 437 -85 450 -21 33 -60 45 -92 30 -55 -27 -55 -37 -2 -358 26 -162 47
-296 46 -297 -8 -9 -122 -23 -186 -23 -257 0 -594 147 -897 392 -45 37 -91 72
-102 77 -11 6 -64 11 -119 11 l-99 0 -11 78 c-16 111 -67 268 -95 287 -30 21
-62 19 -92 -8 -34 -29 -34 -52 -1 -162 37 -121 46 -288 22 -399 -48 -215 -204
-392 -475 -538 -81 -44 -91 -74 -91 -261 l0 -155 47 -112 c38 -92 44 -113 32
-121 -8 -5 -101 -9 -206 -9 l-193 0 0 401 0 400 75 79 c42 44 82 95 90 115 11
25 15 76 15 188 l0 154 -39 54 c-193 270 -249 607 -150 904 58 174 156 300
289 369 237 125 547 64 805 -158 l59 -51 351 -3 c228 -2 363 1 386 7 34 10 50
31 185 239 82 125 190 291 242 370 l93 143 25 -49 c29 -59 95 -113 221 -179
46 -25 90 -55 98 -67 10 -16 14 -84 17 -286 4 -255 5 -268 30 -332 48 -128
137 -233 250 -297 l55 -31 -78 -153 -78 -152 -1 -286 c0 -275 1 -287 21 -313
22 -28 64 -35 99 -16 33 18 40 76 40 338 l0 253 78 149 77 150 105 0 c172 0
286 40 391 138 68 63 113 130 147 220 25 64 26 79 31 338 5 215 9 275 20 288
8 10 41 31 72 47 141 71 212 128 246 197 27 55 28 62 28 222 0 192 -12 248
-95 433 -28 62 -50 116 -50 121 0 4 29 39 63 76 114 123 164 265 153 435 -6
99 -25 177 -52 206 -9 10 -31 23 -49 29 -72 24 -326 -87 -444 -195 l-66 -60
-71 3 -70 3 -17 71 c-29 123 -115 226 -226 270 -52 21 -74 23 -301 25 -185 2
-254 0 -281 -10z m539 -166 c92 -48 122 -110 122 -254 0 -142 -6 -167 -38
-167 -43 0 -112 40 -139 81 -21 31 -27 56 -34 141 -4 57 -8 129 -9 161 0 57 0
57 30 57 17 0 47 -9 68 -19z m-788 -116 c69 -24 162 -74 208 -112 l44 -36 -40
-41 c-22 -22 -61 -84 -87 -136 l-48 -95 -43 48 c-58 64 -86 140 -92 249 -4 77
1 138 12 138 2 0 23 -7 46 -15z m1674 -47 c8 -80 -6 -164 -38 -235 -26 -54
-81 -133 -95 -133 -4 0 -25 37 -46 82 -22 45 -59 106 -83 135 -23 30 -40 57
-38 62 19 31 243 150 282 151 6 0 14 -27 18 -62z m-1093 -225 c50 -104 148
-169 277 -185 144 -19 194 20 201 153 l3 79 53 0 c63 0 109 -14 154 -48 27
-20 56 -71 141 -246 176 -362 200 -435 200 -624 0 -146 -19 -172 -189 -261
-129 -67 -180 -135 -181 -239 l0 -53 -27 19 c-214 151 -550 160 -777 21 -26
-17 -49 -29 -50 -27 -2 2 -8 32 -14 67 -14 78 -49 134 -105 168 -23 13 -82 48
-132 77 -128 76 -130 79 -129 239 1 153 12 203 80 364 64 149 198 426 223 462
33 46 113 81 187 81 l62 0 23 -47z m344 -1448 c90 -19 196 -72 264 -131 l53
-48 -4 -117 c-4 -111 -6 -121 -41 -192 -43 -87 -102 -146 -187 -186 -52 -24
-64 -26 -205 -26 -146 0 -152 1 -209 29 -73 37 -146 109 -180 178 -43 88 -61
282 -31 326 22 30 132 107 191 133 110 47 229 59 349 34z"/>
<path d="M3650 3980 c-17 -17 -20 -31 -18 -82 3 -53 7 -64 30 -81 31 -23 67
-18 98 15 28 30 28 106 -1 142 -26 33 -79 36 -109 6z"/>
<path d="M4434 3979 c-14 -15 -19 -36 -19 -76 0 -48 4 -58 28 -79 37 -32 62
-30 98 5 37 37 41 104 8 145 -27 34 -86 37 -115 5z"/>
<path d="M3850 2833 c-55 -21 -68 -87 -25 -127 14 -13 25 -31 25 -40 0 -27 46
-66 78 -66 65 0 93 85 53 160 -29 54 -90 89 -131 73z"/>
<path d="M4267 2818 c-42 -25 -77 -86 -77 -137 0 -41 38 -81 78 -81 32 0 72
36 72 64 0 9 11 27 25 39 40 36 42 71 7 107 -36 36 -54 37 -105 8z"/>
</g>
</svg>
