<?xml version="1.0" standalone="no"?>
<!DOCTYPE svg PUBLIC "-//W3C//DTD SVG 20010904//EN"
 "http://www.w3.org/TR/2001/REC-SVG-20010904/DTD/svg10.dtd">
<svg version="1.0" xmlns="http://www.w3.org/2000/svg"
 width="512.000000pt" height="512.000000pt" viewBox="0 0 512.000000 512.000000"
 preserveAspectRatio="xMidYMid meet">

<g transform="translate(0.000000,512.000000) scale(0.100000,-0.100000)"
fill="#000000" stroke="none">
<path d="M3730 4759 c-112 -22 -217 -107 -268 -217 l-27 -57 0 -1925 0 -1925
27 -57 c53 -114 158 -196 280 -218 38 -7 238 -10 570 -8 482 3 516 5 561 23
110 45 194 134 227 241 19 64 20 91 20 764 0 690 0 698 -21 724 -28 36 -80 36
-108 0 -21 -26 -21 -34 -21 -723 l0 -696 -24 -52 c-30 -63 -87 -107 -159 -123
-36 -8 -205 -10 -547 -8 -489 3 -495 3 -537 25 -51 27 -96 82 -112 132 -16 55
-16 3747 0 3802 16 50 61 105 112 132 41 22 48 22 527 25 267 2 509 0 537 -3
76 -9 141 -55 176 -124 l27 -55 0 -1052 c0 -1013 1 -1053 19 -1075 26 -32 86
-32 113 0 18 23 18 57 16 1100 l-3 1076 -27 57 c-53 113 -158 195 -277 218
-66 12 -1017 12 -1081 -1z"/>
<path d="M3788 4310 c-24 -25 -29 -36 -24 -58 12 -49 39 -62 131 -62 66 0 88
4 106 18 33 27 30 78 -5 109 -23 20 -38 23 -102 23 -71 0 -77 -2 -106 -30z"/>
<path d="M4564 4328 c-22 -10 -44 -47 -44 -72 0 -7 9 -25 21 -40 19 -25 25
-26 110 -26 103 0 129 15 129 74 0 55 -36 76 -124 75 -39 0 -81 -5 -92 -11z"/>
<path d="M293 4175 c-119 -32 -204 -103 -256 -213 l-32 -67 -3 -880 c-1 -484
0 -890 3 -902 3 -13 19 -30 36 -39 26 -13 36 -13 60 -3 17 6 34 20 39 30 6 11
10 345 10 875 0 621 3 867 12 895 15 51 69 114 122 142 l41 22 1305 0 1305 0
45 -25 c58 -33 105 -96 119 -160 6 -30 11 -162 11 -315 l0 -264 26 -20 c15
-12 33 -21 40 -21 26 0 62 23 73 47 15 32 15 509 0 589 -24 130 -118 248 -236
296 l-58 23 -1305 2 c-1102 2 -1313 0 -1357 -12z"/>
<path d="M3815 3811 c-49 -21 -64 -83 -30 -121 16 -17 31 -20 110 -20 104 0
128 14 128 71 0 52 -32 73 -116 76 -39 2 -81 -1 -92 -6z"/>
<path d="M4193 3810 c-32 -13 -56 -55 -48 -82 16 -51 32 -58 130 -58 104 0
128 14 128 71 0 52 -32 73 -116 76 -39 2 -82 -1 -94 -7z"/>
<path d="M4574 3811 c-26 -11 -54 -49 -54 -72 0 -9 9 -28 21 -43 19 -25 25
-26 113 -26 106 0 126 11 126 72 0 54 -27 72 -113 75 -40 2 -82 -1 -93 -6z"/>
<path d="M475 3785 c-14 -13 -25 -36 -25 -50 0 -14 11 -37 25 -50 22 -22 32
-25 105 -25 73 0 83 3 105 25 32 31 32 69 0 100 -22 22 -32 25 -105 25 -73 0
-83 -3 -105 -25z"/>
<path d="M2625 3785 c-14 -13 -25 -36 -25 -50 0 -14 11 -37 25 -50 21 -22 33
-25 103 -25 97 0 132 20 132 75 0 55 -35 75 -132 75 -70 0 -82 -3 -103 -25z"/>
<path d="M3785 3500 c-28 -31 -24 -79 9 -107 23 -20 38 -23 101 -23 63 0 78 3
101 23 33 28 37 76 9 107 -16 17 -31 20 -110 20 -79 0 -94 -3 -110 -20z"/>
<path d="M4167 3503 c-8 -10 -19 -30 -22 -45 -6 -22 -1 -33 23 -58 29 -28 35
-30 106 -30 64 0 79 3 102 23 35 31 38 82 5 109 -33 26 -190 27 -214 1z"/>
<path d="M4541 3494 c-29 -36 -26 -60 9 -96 30 -29 33 -30 109 -27 95 5 121
22 121 80 0 56 -24 69 -131 69 -83 0 -89 -1 -108 -26z"/>
<path d="M3793 3215 c-40 -28 -37 -89 6 -122 10 -7 48 -12 96 -12 84 0 103 7
124 47 15 28 -1 77 -30 92 -29 16 -171 12 -196 -5z"/>
<path d="M4173 3215 c-29 -20 -37 -59 -19 -94 19 -36 32 -41 116 -41 82 0 116
13 128 50 11 32 -7 84 -33 94 -33 12 -170 7 -192 -9z"/>
<path d="M4549 3211 c-17 -13 -23 -29 -23 -56 0 -58 28 -75 124 -75 95 0 130
20 130 76 0 58 -26 74 -124 74 -67 0 -88 -4 -107 -19z"/>
<path d="M3132 3057 l-22 -23 0 -857 c0 -581 -4 -872 -11 -907 -14 -64 -61
-127 -119 -160 l-45 -25 -1305 0 -1305 0 -41 22 c-53 28 -107 91 -122 142 -8
25 -12 136 -12 323 0 273 -1 286 -21 312 -29 36 -80 36 -109 -1 -21 -27 -21
-33 -18 -343 l3 -315 32 -67 c54 -115 153 -192 278 -218 33 -7 478 -9 1345 -8
l1295 3 57 23 c116 47 214 170 237 296 7 40 11 340 11 908 0 726 -2 853 -15
877 -24 47 -78 56 -113 18z"/>
<path d="M926 3049 c-34 -27 -36 -77 -3 -107 20 -19 35 -22 110 -22 l87 0 0
-380 c0 -367 1 -381 20 -400 30 -30 83 -27 109 6 20 26 21 37 21 400 l0 374
85 0 c78 0 88 2 110 25 14 13 25 36 25 50 0 14 -11 37 -25 50 l-24 25 -244 0
c-232 0 -246 -1 -271 -21z"/>
<path d="M1666 3049 c-16 -13 -26 -30 -26 -47 0 -15 63 -209 140 -432 152
-437 158 -450 225 -450 67 0 72 11 222 463 132 400 137 418 123 444 -21 37
-71 51 -104 30 -20 -13 -43 -73 -132 -341 -60 -179 -110 -324 -111 -322 -1 1
-52 146 -113 322 -74 213 -118 325 -131 337 -28 23 -60 22 -93 -4z"/>
<path d="M3803 2928 c-48 -23 -51 -103 -4 -127 11 -6 54 -11 96 -11 42 0 85 5
96 11 46 24 42 105 -7 128 -31 14 -151 13 -181 -1z"/>
<path d="M4183 2928 c-48 -23 -51 -103 -4 -127 11 -6 56 -11 100 -11 68 0 84
3 101 20 33 33 30 75 -6 108 -21 19 -36 22 -97 21 -40 0 -82 -5 -94 -11z"/>
<path d="M4563 2928 c-48 -23 -51 -103 -4 -127 11 -6 56 -11 100 -11 95 0 121
16 121 74 0 55 -36 76 -124 75 -39 0 -81 -5 -93 -11z"/>
<path d="M4203 2580 c-111 -23 -221 -108 -270 -209 -25 -50 -28 -67 -28 -161
0 -93 3 -111 27 -162 34 -74 107 -146 183 -184 54 -26 69 -29 160 -29 90 1
106 4 160 30 76 36 143 104 181 180 26 54 29 70 29 160 0 93 -2 105 -33 167
-75 153 -249 242 -409 208z m178 -171 c166 -84 156 -331 -16 -410 -144 -66
-315 45 -315 203 0 116 65 201 175 229 41 11 112 1 156 -22z"/>
<path d="M3824 1684 c-56 -13 -76 -87 -35 -127 19 -19 32 -22 106 -22 74 0 87
3 106 22 29 28 29 77 2 105 -17 16 -36 21 -90 23 -37 2 -78 1 -89 -1z"/>
<path d="M4583 1684 c-27 -6 -63 -49 -63 -75 0 -10 11 -31 24 -46 23 -27 29
-28 109 -28 102 0 127 15 127 75 0 54 -25 72 -107 76 -38 1 -78 0 -90 -2z"/>
<path d="M1142 1497 c-31 -33 -29 -80 4 -106 22 -17 41 -21 106 -21 70 0 82 3
103 25 30 30 32 64 4 99 -19 25 -25 26 -108 26 -79 0 -90 -2 -109 -23z"/>
<path d="M1522 1497 c-31 -33 -29 -80 4 -106 22 -17 41 -21 106 -21 70 0 82 3
103 25 32 31 32 69 0 100 -22 23 -32 25 -108 25 -74 0 -86 -3 -105 -23z"/>
<path d="M1900 1500 c-30 -30 -27 -83 6 -109 22 -17 41 -21 106 -21 70 0 82 3
103 25 32 31 32 69 0 100 -22 23 -32 25 -110 25 -72 0 -88 -3 -105 -20z"/>
<path d="M3785 1310 c-25 -28 -23 -76 4 -103 19 -19 32 -22 106 -22 74 0 87 3
106 22 27 27 29 75 4 103 -16 17 -31 20 -110 20 -79 0 -94 -3 -110 -20z"/>
<path d="M4161 1304 c-27 -35 -26 -57 3 -91 23 -27 28 -28 110 -28 75 0 88 3
107 22 27 27 29 75 4 103 -16 17 -31 20 -111 20 -88 0 -94 -1 -113 -26z"/>
<path d="M4541 1304 c-27 -35 -26 -57 3 -91 23 -27 29 -28 109 -28 102 0 127
15 127 75 0 59 -21 70 -128 70 -86 0 -92 -1 -111 -26z"/>
<path d="M3797 1029 c-46 -27 -41 -105 9 -128 32 -14 146 -14 178 0 49 23 53
104 7 128 -25 14 -170 14 -194 0z"/>
<path d="M4177 1029 c-28 -16 -40 -58 -27 -90 15 -36 49 -49 130 -49 57 0 73
4 94 23 36 32 39 74 6 107 -17 17 -33 20 -102 20 -46 0 -91 -5 -101 -11z"/>
<path d="M4557 1029 c-28 -16 -40 -58 -27 -90 15 -36 49 -49 129 -49 85 0 121
22 121 76 0 58 -26 74 -122 74 -46 0 -91 -5 -101 -11z"/>
</g>
</svg>
