<?xml version="1.0" standalone="no"?>
<!DOCTYPE svg PUBLIC "-//W3C//DTD SVG 20010904//EN"
 "http://www.w3.org/TR/2001/REC-SVG-20010904/DTD/svg10.dtd">
<svg version="1.0" xmlns="http://www.w3.org/2000/svg"
 width="512.000000pt" height="512.000000pt" viewBox="0 0 512.000000 512.000000"
 preserveAspectRatio="xMidYMid meet">

<g transform="translate(0.000000,512.000000) scale(0.100000,-0.100000)"
fill="#000000" stroke="none">
<path d="M2395 4994 c-218 -52 -423 -244 -493 -459 -11 -34 -23 -84 -27 -113
l-7 -52 -474 0 c-520 0 -506 2 -557 -60 -15 -17 -29 -46 -33 -65 l-6 -35 -92
0 c-58 0 -96 -4 -104 -12 -9 -9 -12 -114 -12 -409 0 -348 2 -400 16 -413 12
-12 37 -16 104 -16 l88 0 4 -152 c3 -139 6 -158 30 -209 30 -65 86 -131 140
-166 l38 -23 0 -365 0 -365 -95 0 c-113 0 -160 -18 -196 -77 -22 -34 -24 -52
-27 -175 -4 -127 -3 -137 17 -157 13 -13 34 -21 56 -21 l34 0 3 -479 c3 -469
3 -480 24 -508 35 -48 82 -73 134 -73 l47 0 6 -93 c9 -151 53 -240 158 -319
96 -72 14 -68 1389 -68 1054 0 1244 2 1285 15 104 31 202 126 240 235 9 25 19
87 22 138 l6 92 47 0 c52 0 99 25 134 73 21 28 21 39 24 508 l3 479 34 0 c22
0 43 8 56 21 20 20 21 30 17 157 -3 123 -5 141 -27 175 -36 59 -83 77 -196 77
l-95 0 0 365 0 365 38 23 c54 35 110 101 140 166 24 51 27 70 30 209 l4 152
88 0 c67 0 92 4 104 16 14 13 16 65 16 413 0 295 -3 400 -12 409 -8 8 -46 12
-104 12 l-92 0 -6 35 c-4 19 -18 48 -33 65 -51 62 -37 60 -557 60 l-474 0 -7
53 c-36 263 -262 510 -525 571 -81 19 -245 19 -325 0z m340 -115 c202 -62 375
-260 401 -459 l7 -51 -54 3 -54 3 -7 44 c-12 72 -63 167 -123 230 -189 199
-500 200 -688 2 -69 -72 -108 -147 -131 -253 -6 -26 -10 -28 -56 -28 -58 0
-60 6 -35 105 56 212 255 391 475 425 73 11 191 2 265 -21z m-23 -221 c31 -14
77 -45 102 -68 44 -41 97 -133 110 -192 l6 -28 -371 0 -371 0 7 28 c12 50 52
128 85 165 42 49 80 75 149 104 79 33 201 29 283 -9z m1476 -404 l22 -15 0
-577 0 -577 -24 -51 c-13 -27 -42 -66 -66 -87 -70 -60 -106 -67 -342 -67
l-208 0 0 279 c0 278 0 280 -22 295 -33 23 -343 23 -376 0 -22 -15 -22 -17
-22 -295 l0 -279 -590 0 -590 0 0 279 c0 278 0 280 -22 295 -18 13 -54 16
-188 16 -134 0 -170 -3 -188 -16 -22 -15 -22 -17 -22 -295 l0 -279 -208 0
c-236 0 -272 7 -342 67 -24 21 -53 60 -66 87 l-24 51 0 577 0 577 22 15 c34
24 3222 24 3256 0z m-3388 -464 l0 -320 -55 0 -55 0 0 313 c0 173 3 317 7 320
3 4 28 7 55 7 l48 0 0 -320z m3628 -2 l2 -318 -55 0 -55 0 0 321 0 320 53 -3
52 -3 3 -317z m-2558 -933 l0 -505 -110 0 -110 0 0 505 0 505 110 0 110 0 0
-505z m1600 0 l0 -505 -110 0 -110 0 0 505 0 505 110 0 110 0 0 -505z m-2119
-85 l199 0 0 -105 0 -105 -45 0 c-60 0 -117 -30 -146 -77 -22 -34 -24 -51 -27
-178 -3 -130 -1 -143 20 -184 31 -61 67 -85 136 -91 l57 -5 5 -91 c4 -78 9
-96 32 -130 15 -21 44 -50 65 -64 31 -21 48 -25 113 -25 67 0 81 3 116 27 68
48 88 89 94 192 l5 91 57 5 c69 6 105 30 136 91 21 41 23 54 20 184 -3 127 -5
144 -27 178 -29 47 -86 77 -146 77 l-45 0 0 105 0 105 590 0 590 0 0 -105 0
-105 -45 0 c-60 0 -117 -30 -146 -77 -22 -34 -24 -51 -27 -178 -3 -130 -1
-143 20 -184 31 -61 67 -85 136 -91 l57 -5 5 -91 c4 -78 9 -96 32 -130 15 -21
44 -50 65 -64 31 -21 48 -25 113 -25 65 0 82 4 113 25 21 14 50 43 65 64 23
34 28 52 32 130 l5 91 57 5 c69 6 105 30 136 91 21 41 23 54 20 184 -3 127 -5
144 -27 178 -29 47 -86 77 -146 77 l-45 0 0 105 0 105 199 0 c110 0 207 3 215
6 15 6 16 -97 14 -1182 l-3 -1189 -22 -40 c-28 -54 -100 -119 -149 -136 -58
-21 -2470 -21 -2528 0 -49 17 -121 82 -149 136 l-22 40 -3 1189 c-2 1085 -1
1188 14 1182 8 -3 105 -6 215 -6z m199 -370 l0 -50 -55 0 -55 0 0 34 c0 45 22
66 71 66 l39 0 0 -50z m514 34 c9 -8 16 -31 16 -50 l0 -34 -55 0 -55 0 0 50 0
50 39 0 c23 0 46 -7 55 -16z m1086 -34 l0 -50 -55 0 -55 0 0 34 c0 45 22 66
71 66 l39 0 0 -50z m514 34 c9 -8 16 -31 16 -50 l0 -34 -55 0 -55 0 0 50 0 50
39 0 c23 0 46 -7 55 -16z m-2116 -246 c-3 -50 -5 -53 -31 -56 -46 -6 -77 22
-77 68 l0 40 56 0 55 0 -3 -52z m322 -114 c0 -188 -9 -222 -65 -248 -41 -20
-49 -20 -90 0 -56 26 -65 60 -65 248 l0 166 110 0 110 0 0 -166z m210 126 c0
-46 -31 -74 -77 -68 -26 3 -28 6 -31 56 l-3 52 55 0 56 0 0 -40z m1068 -12
c-3 -50 -5 -53 -31 -56 -46 -6 -77 22 -77 68 l0 40 56 0 55 0 -3 -52z m322
-114 c0 -188 -9 -222 -65 -248 -41 -20 -49 -20 -90 0 -56 26 -65 60 -65 248
l0 166 110 0 110 0 0 -166z m210 126 c0 -46 -31 -74 -77 -68 -26 3 -28 6 -31
56 l-3 52 55 0 56 0 0 -40z m-2670 -335 l0 -105 -105 0 -105 0 0 89 c0 117 4
121 121 121 l89 0 0 -105z m3294 89 c12 -12 16 -37 16 -105 l0 -89 -105 0
-105 0 0 105 0 105 89 0 c68 0 93 -4 105 -16z m-3294 -784 l0 -480 -28 0 c-15
0 -38 7 -50 16 l-22 15 0 465 0 464 50 0 50 0 0 -480z m3200 16 l0 -465 -22
-15 c-12 -9 -35 -16 -50 -16 l-28 0 0 480 0 480 50 0 50 0 0 -464z"/>
<path d="M1446 1540 c-41 -13 -94 -68 -106 -110 -5 -19 -10 -87 -10 -150 0
-138 9 -160 70 -160 l39 0 3 -214 c3 -238 5 -244 78 -293 32 -22 40 -23 295
-23 255 0 263 1 296 23 19 12 44 42 57 67 21 41 22 57 22 242 l0 198 34 0 c61
0 66 14 66 174 0 132 -2 146 -23 177 -12 19 -42 44 -67 57 -43 22 -51 22 -385
21 -187 0 -353 -5 -369 -9z m728 -122 c11 -16 16 -46 16 -105 l0 -83 -375 0
-375 0 0 87 c0 133 -31 123 376 123 l343 0 15 -22z m-94 -497 c0 -195 -1 -200
-22 -215 -19 -13 -60 -16 -243 -16 -183 0 -224 3 -243 16 -21 15 -22 20 -22
215 l0 199 265 0 265 0 0 -199z"/>
<path d="M2920 1528 c-25 -13 -55 -38 -67 -57 -21 -31 -23 -45 -23 -177 0
-160 5 -174 66 -174 l34 0 0 -198 c0 -185 1 -201 23 -242 12 -25 37 -55 56
-67 33 -22 41 -23 296 -23 255 0 263 1 295 23 73 49 75 55 78 293 l3 214 39 0
c61 0 70 22 70 160 0 63 -4 131 -10 149 -13 46 -65 99 -110 111 -20 6 -181 10
-370 10 -328 0 -337 0 -380 -22z m742 -105 c15 -13 18 -32 18 -105 l0 -88
-375 0 -375 0 0 83 c0 59 5 89 16 105 l15 22 341 0 c304 0 343 -2 360 -17z
m-92 -502 c0 -195 -1 -200 -22 -215 -19 -13 -60 -16 -243 -16 -183 0 -224 3
-243 16 -21 15 -22 20 -22 215 l0 199 265 0 265 0 0 -199z"/>
</g>
</svg>
