<?xml version="1.0" standalone="no"?>
<!DOCTYPE svg PUBLIC "-//W3C//DTD SVG 20010904//EN"
 "http://www.w3.org/TR/2001/REC-SVG-20010904/DTD/svg10.dtd">
<svg version="1.0" xmlns="http://www.w3.org/2000/svg"
 width="512.000000pt" height="512.000000pt" viewBox="0 0 512.000000 512.000000"
 preserveAspectRatio="xMidYMid meet">

<g transform="translate(0.000000,512.000000) scale(0.100000,-0.100000)"
fill="#000000" stroke="none">
<path d="M2395 4453 c-132 -28 -268 -99 -362 -189 -48 -45 -55 -77 -25 -115
31 -37 72 -30 133 24 149 130 362 185 553 143 96 -22 215 -81 285 -142 61 -55
102 -62 133 -25 30 39 23 70 -28 118 -180 167 -444 239 -689 186z"/>
<path d="M2455 4116 c-95 -23 -208 -100 -221 -150 -8 -31 11 -65 42 -76 36
-14 36 -14 85 25 56 45 136 75 199 75 63 0 143 -30 199 -75 49 -39 49 -39 85
-25 56 21 58 79 3 129 -97 92 -255 130 -392 97z"/>
<path d="M2501 3764 c-26 -21 -31 -33 -31 -69 0 -36 5 -48 31 -69 17 -15 43
-26 59 -26 16 0 42 11 59 26 26 21 31 33 31 69 0 36 -5 48 -31 69 -17 15 -43
26 -59 26 -16 0 -42 -11 -59 -26z"/>
<path d="M4563 3694 c-182 -94 -404 -254 -526 -381 l-38 -40 -67 13 c-252 48
-653 67 -903 44 -1176 -107 -2106 -832 -2735 -2135 -102 -213 -204 -452 -204
-482 0 -11 10 -29 23 -41 l23 -22 1937 0 c1916 0 1937 0 1957 20 11 11 26 35
34 54 32 77 121 198 197 270 132 124 280 186 642 267 137 30 134 26 113 225
-42 394 -107 645 -241 931 -29 61 -118 234 -198 385 -80 150 -147 279 -149
285 -5 19 177 151 307 222 64 36 123 74 130 85 43 67 22 193 -45 269 -37 41
-109 87 -138 87 -7 0 -60 -25 -119 -56z m145 -116 c21 -23 42 -69 42 -92 0 -6
-26 -24 -57 -40 -71 -34 -207 -122 -288 -185 -33 -26 -66 -51 -73 -55 -14 -9
-162 24 -162 36 0 15 157 141 265 213 100 66 231 143 246 144 3 1 15 -9 27
-21z m-1028 -398 c141 -17 294 -44 455 -81 l143 -33 180 -340 c99 -188 200
-388 225 -446 90 -210 147 -428 182 -695 22 -171 21 -183 -12 -191 -319 -75
-476 -134 -608 -228 l-50 -36 -1887 0 c-1039 0 -1888 3 -1888 7 0 10 124 242
193 359 491 838 1126 1373 1893 1595 132 38 316 74 449 88 55 6 116 13 135 15
65 8 494 -3 590 -14z m336 -2257 c-24 -38 -51 -83 -60 -100 l-17 -33 -1834 0
c-1091 0 -1835 4 -1835 9 0 5 14 40 31 78 17 37 35 78 40 91 l9 22 1855 0
1855 0 -44 -67z"/>
<path d="M3170 2874 c-486 -43 -960 -209 -1340 -468 -103 -70 -241 -208 -274
-274 -60 -119 -37 -204 69 -257 l60 -30 635 0 c611 0 640 1 755 22 372 68 643
212 792 420 148 208 118 440 -68 522 -98 44 -455 80 -629 65z m305 -144 c133
-13 251 -36 286 -57 40 -24 59 -64 59 -125 0 -141 -142 -304 -360 -413 -67
-34 -201 -85 -222 -85 -4 0 -11 18 -14 40 -10 64 -62 140 -118 175 l-49 30
-271 3 c-182 2 -284 0 -309 -8 -49 -14 -125 -83 -148 -135 -12 -26 -19 -64
-19 -107 l0 -68 -290 0 c-231 0 -298 3 -325 14 -19 8 -35 21 -35 29 0 26 58
103 125 166 266 248 818 479 1265 530 200 23 274 25 425 11z m-436 -586 c26
-19 51 -71 51 -107 0 -22 -7 -25 -67 -36 -38 -7 -182 -15 -320 -18 l-253 -5 0
58 c0 61 15 90 55 112 13 8 106 11 265 12 211 0 249 -2 269 -16z"/>
</g>
</svg>
