<?xml version="1.0" standalone="no"?>
<!DOCTYPE svg PUBLIC "-//W3C//DTD SVG 20010904//EN"
 "http://www.w3.org/TR/2001/REC-SVG-20010904/DTD/svg10.dtd">
<svg version="1.0" xmlns="http://www.w3.org/2000/svg"
 width="512.000000pt" height="512.000000pt" viewBox="0 0 512.000000 512.000000"
 preserveAspectRatio="xMidYMid meet">

<g transform="translate(0.000000,512.000000) scale(0.100000,-0.100000)"
fill="#000000" stroke="none">
<path d="M3596 5104 c-79 -19 -170 -69 -225 -124 -55 -54 -2032 -2659 -2046
-2696 -21 -56 49 -114 102 -84 15 8 472 603 1017 1322 545 719 1005 1321 1021
1339 71 75 178 115 280 106 61 -6 118 -24 113 -37 -2 -4 -610 -808 -1353
-1787 l-1350 -1780 -64 24 c-38 14 -99 27 -151 31 l-86 7 213 280 c117 154
216 291 220 304 14 54 -49 107 -101 83 -38 -17 -680 -878 -725 -971 -32 -68
-36 -86 -39 -173 -3 -56 1 -118 7 -145 l12 -46 -99 -101 c-55 -56 -107 -115
-116 -133 -20 -40 -20 -109 -1 -147 l16 -29 -121 -122 c-132 -133 -142 -154
-95 -200 46 -47 67 -37 200 95 l122 121 29 -16 c34 -17 101 -20 140 -4 16 5
76 57 135 115 l107 106 38 -11 c22 -6 79 -11 127 -11 96 0 175 21 257 68 25
14 304 222 620 461 316 240 664 503 774 586 122 92 202 159 208 175 20 54 -36
113 -90 96 -11 -4 -300 -220 -643 -480 l-624 -473 -6 86 c-4 53 -16 111 -31
151 l-25 65 281 212 c155 117 353 268 441 335 88 66 615 466 1170 887 556 421
1064 806 1130 856 427 325 548 416 550 413 15 -19 27 -59 32 -111 10 -108 -31
-210 -113 -288 -22 -20 -469 -362 -994 -759 -525 -398 -961 -730 -968 -739
-21 -26 -11 -81 20 -104 48 -36 -84 -130 1461 1042 452 343 608 466 637 505
119 157 141 349 60 525 -36 77 -77 121 -114 121 -13 0 -62 -29 -109 -65 l-86
-65 -68 89 c-64 84 -95 111 -128 111 -8 0 -93 -59 -189 -131 -125 -93 -178
-138 -183 -156 -15 -60 38 -114 92 -93 14 5 81 52 149 104 l123 95 41 -56 41
-56 -42 -32 c-23 -17 -379 -287 -790 -599 -546 -414 -752 -564 -761 -557 -6 6
-26 30 -43 53 l-31 44 554 419 c356 270 557 429 564 446 21 51 -21 104 -77 97
-38 -4 -1198 -885 -1214 -921 -15 -36 -7 -55 72 -159 52 -67 59 -82 48 -93 -8
-7 -372 -284 -809 -615 -437 -331 -802 -607 -810 -614 -16 -13 -56 -66 659
879 305 402 559 736 566 744 11 11 28 2 101 -53 96 -73 124 -85 157 -67 22 12
1285 1670 1321 1734 29 51 12 79 -94 160 l-90 68 65 86 c36 47 65 96 65 109 0
75 -185 165 -335 163 -33 0 -86 -7 -119 -15z m293 -511 l49 -36 -186 -246
c-103 -136 -373 -492 -601 -793 l-414 -546 -54 40 c-29 22 -53 42 -53 44 0 10
1193 1574 1201 1574 5 0 32 -16 58 -37z m-2884 -3338 c209 -54 320 -287 231
-482 -33 -70 -94 -134 -163 -169 -53 -26 -67 -29 -158 -29 -90 0 -105 3 -153
28 -69 36 -129 98 -161 167 -22 47 -26 69 -26 150 0 80 4 103 24 145 47 94
131 165 230 191 63 17 106 17 176 -1z m-472 -817 c-43 -43 -82 -78 -87 -78
-14 0 -86 71 -86 84 0 6 35 46 77 88 l77 78 48 -47 48 -47 -77 -78z"/>
<path d="M858 1130 c-97 -29 -158 -112 -158 -214 1 -213 278 -299 397 -123 17
25 34 65 38 87 26 155 -129 295 -277 250z m115 -172 c22 -27 22 -49 -4 -82
-25 -32 -70 -35 -99 -6 -29 29 -26 74 7 100 32 25 69 20 96 -12z"/>
</g>
</svg>
