<?xml version="1.0" standalone="no"?>
<!DOCTYPE svg PUBLIC "-//W3C//DTD SVG 20010904//EN"
 "http://www.w3.org/TR/2001/REC-SVG-20010904/DTD/svg10.dtd">
<svg version="1.0" xmlns="http://www.w3.org/2000/svg"
 width="512.000000pt" height="512.000000pt" viewBox="0 0 512.000000 512.000000"
 preserveAspectRatio="xMidYMid meet">

<g transform="translate(0.000000,512.000000) scale(0.100000,-0.100000)"
fill="#000000" stroke="none">
<path d="M2840 4034 c-137 -29 -235 -98 -360 -252 l-35 -43 -35 26 c-62 47
-188 105 -273 125 -100 24 -224 26 -298 4 -263 -77 -444 -416 -514 -964 -9
-69 -18 -136 -21 -149 -6 -26 3 -27 -128 18 -114 40 -303 78 -431 86 -309 20
-526 -144 -660 -502 -37 -98 -74 -293 -81 -429 -8 -133 5 -201 54 -284 60
-105 212 -227 359 -289 85 -37 257 -86 333 -96 30 -3 80 -13 110 -20 323 -81
857 -56 1364 65 116 27 129 28 222 19 199 -19 479 -72 839 -158 377 -89 564
-115 850 -115 282 0 472 42 638 142 210 126 331 330 344 582 6 127 -11 211
-63 310 -108 205 -352 364 -749 487 l-90 28 -27 285 c-33 360 -53 500 -81 569
-20 50 -31 62 -122 128 -117 85 -292 192 -421 256 -324 162 -535 212 -724 171z
m309 -184 c84 -24 225 -82 352 -146 169 -84 444 -262 453 -291 14 -51 29 -166
56 -443 17 -168 30 -305 30 -306 0 -1 -21 3 -47 7 -333 63 -558 66 -786 13
-37 -9 -70 -14 -73 -11 -3 3 -14 79 -25 169 -36 315 -39 329 -70 360 -37 37
-72 36 -111 -3 -29 -28 -30 -33 -24 -82 21 -168 56 -475 56 -492 0 -16 -16
-27 -67 -49 -38 -16 -109 -51 -160 -78 l-91 -49 -134 -9 c-187 -13 -703 -12
-893 1 -88 7 -161 13 -163 14 -5 4 19 291 34 405 52 399 158 697 287 806 84
71 190 91 321 59 64 -15 186 -71 186 -85 0 -13 -148 -49 -261 -64 -85 -11
-105 -17 -121 -36 -36 -44 -14 -117 41 -135 33 -10 201 13 297 40 192 56 281
116 436 297 61 71 126 110 208 128 63 13 182 4 269 -20z m-2249 -1156 c108
-20 226 -53 314 -90 l69 -29 -2 -255 c-1 -140 -3 -256 -5 -257 -1 -1 -94 11
-206 27 -113 16 -215 30 -228 30 -33 0 -72 -43 -72 -80 0 -54 42 -85 135 -99
292 -44 575 -75 804 -87 72 -4 131 -10 130 -13 0 -9 -188 -166 -250 -211 -124
-88 -312 -161 -464 -182 -100 -13 -315 -4 -415 17 -231 51 -434 168 -508 293
-25 44 -27 54 -26 157 3 286 98 564 238 693 48 45 125 87 183 102 47 11 191 4
303 -16z m2890 -164 c606 -87 1007 -271 1121 -513 78 -167 32 -406 -108 -557
-124 -134 -305 -199 -601 -216 -226 -13 -485 23 -957 131 -154 35 -321 72
-372 81 -51 10 -90 21 -88 25 3 4 57 21 122 39 114 32 121 32 268 27 160 -5
284 -26 461 -78 56 -16 112 -29 124 -29 29 0 80 53 80 83 0 46 -35 75 -123
102 -214 64 -408 96 -592 96 -144 -1 -168 -6 -420 -85 -201 -64 -459 -127
-690 -170 -233 -44 -488 -78 -461 -62 102 61 217 149 388 296 336 289 463 390
652 514 285 188 550 299 781 329 87 11 292 5 415 -13z m-2180 -261 c58 -5 248
-10 424 -10 175 0 315 -4 310 -8 -5 -5 -52 -41 -104 -81 -52 -41 -117 -92
-145 -116 l-50 -42 -210 8 c-115 5 -249 12 -297 16 l-88 7 0 118 0 119 28 0
c15 -1 74 -5 132 -11z"/>
</g>
</svg>
